<svg width="292" height="299" viewBox="0 0 292 299" fill="none" xmlns="http://www.w3.org/2000/svg">
<g clip-path="url(#clip0_25_2)">
<rect x="11" y="15" width="269" height="269" rx="73" fill="#050505"/>
<path d="M105 213.25C98 213.25 92.5833 211.333 88.75 207.5C84.9167 203.667 83 198.083 83 190.75V108C83 100.833 84.8333 95.3333 88.5 91.5C92.3333 87.6667 97.75 85.75 104.75 85.75C111.75 85.75 117.083 87.6667 120.75 91.5C124.417 95.3333 126.25 100.833 126.25 108V119.75L123.5 109.5C127.5 101.667 133.167 95.6667 140.5 91.5C148 87.3333 156.5 85.25 166 85.25C175.833 85.25 183.917 87.1667 190.25 91C196.583 94.6667 201.333 100.5 204.5 108.5C207.667 116.333 209.25 126.25 209.25 138.25V190.75C209.25 198.083 207.333 203.667 203.5 207.5C199.667 211.333 194.167 213.25 187 213.25C179.833 213.25 174.333 211.333 170.5 207.5C166.667 203.667 164.75 198.083 164.75 190.75V140C164.75 132.5 163.417 127.167 160.75 124C158.25 120.833 154.5 119.25 149.5 119.25C142.833 119.25 137.5 121.417 133.5 125.75C129.5 129.917 127.5 135.583 127.5 142.75V190.75C127.5 205.75 120 213.25 105 213.25Z" fill="white"/>
</g>
<defs>
<clipPath id="clip0_25_2">
<rect width="292" height="299" fill="white"/>
</clipPath>
</defs>
</svg>
